<mxfile host="app.diagrams.net" agent="Mozilla/5.0 (Macintosh; Intel Mac OS X 10_15_7) AppleWebKit/605.1.15 (KHTML, like Gecko) Version/17.6 Safari/605.1.15" version="24.7.7">
  <diagram name="Page-1" id="s-o9Ypvf8S8ko-CNnGX8">
    <mxGraphModel>
      <root>
        <mxCell id="0" />
        <mxCell id="1" parent="0" />
        <mxCell id="2" value="Core_Features" style="whiteSpace=wrap;strokeWidth=2;verticalAlign=top;" vertex="1" parent="1">
          <mxGeometry y="172" width="781" height="288" as="geometry" />
        </mxCell>
        <mxCell id="3" value="Scream Recognition" style="ellipse;aspect=fixed;strokeWidth=2;whiteSpace=wrap;" vertex="1" parent="2">
          <mxGeometry x="43" y="74" width="156" height="156" as="geometry" />
        </mxCell>
        <mxCell id="4" value="Real-time Location Tracking" style="ellipse;aspect=fixed;strokeWidth=2;whiteSpace=wrap;" vertex="1" parent="2">
          <mxGeometry x="249" y="43" width="217" height="217" as="geometry" />
        </mxCell>
        <mxCell id="5" value="Emergency Notification System" style="ellipse;aspect=fixed;strokeWidth=2;whiteSpace=wrap;" vertex="1" parent="2">
          <mxGeometry x="516" y="33" width="238" height="238" as="geometry" />
        </mxCell>
        <mxCell id="6" value="Introduction" style="ellipse;aspect=fixed;strokeWidth=2;whiteSpace=wrap;" vertex="1" parent="1">
          <mxGeometry x="339" width="103" height="103" as="geometry" />
        </mxCell>
        <mxCell id="7" value="Brief overview of the project objective: leveraging AI/ML, IoT, and Blockchain for women&#39;s safety" style="curved=1;startArrow=none;endArrow=block;exitX=0.5;exitY=1;entryX=0.5;entryY=0;" edge="1" parent="1" source="6" target="2">
          <mxGeometry relative="1" as="geometry">
            <Array as="points" />
          </mxGeometry>
        </mxCell>
      </root>
    </mxGraphModel>
  </diagram>
</mxfile>
